<svg width="259" height="84" viewBox="0 0 259 84" fill="none" xmlns="http://www.w3.org/2000/svg">
<path d="M258.641 58.5552C258.324 60.0269 258.07 61.5154 257.682 62.968C254.671 74.2552 244.365 82.7788 232.706 83.6537C231.836 83.7184 230.968 83.7759 229.942 83.8478V56.2613C226.836 55.6453 223.847 55.3121 221.021 54.4492C209.28 50.8538 201.239 39.9932 201.241 27.9988C201.241 14.5759 211.184 2.80923 224.47 0.496169C225.326 0.347558 226.176 0.16539 227.03 0C227.989 0 228.945 0 229.904 0C229.944 0.714292 230.024 1.42858 230.024 2.14048C230.033 10.2638 230.028 18.3846 230.033 26.5079C230.033 26.9657 230.079 27.4211 230.1 27.831C231.524 27.9629 232.797 28.0539 234.06 28.2049C245.448 29.5568 255.362 38.4471 257.912 49.5882C258.176 50.7411 258.401 51.9036 258.643 53.0614V58.5576L258.641 58.5552Z" fill="black"/>
<path d="M66.3453 27.8142C77.4551 46.544 88.4476 65.0773 99.5263 83.7567H0C11.0643 65.1036 22.0664 46.5512 33.1786 27.8166C38.7348 37.1767 44.1998 46.3858 49.7631 55.7603C55.3121 46.4098 60.77 37.2151 66.3453 27.8166V27.8142Z" fill="black"/>
<path d="M121.768 27.7184C135.852 27.9029 148.103 37.9941 150.14 51.2588C152.355 65.6861 143.743 78.8598 129.527 82.7836C113.824 87.1197 97.5872 77.7068 93.8335 62.0907C90.286 47.3326 99.7996 32.2438 114.929 28.7419C117.168 28.2241 119.488 28.0515 121.77 27.7184H121.768Z" fill="black"/>
<path d="M212.945 55.9281C212.44 66.6329 207.804 74.8497 198.556 79.9671C188.007 85.8037 177.365 85.2764 167.394 78.4691C159.594 73.1454 155.749 65.4704 155.421 55.9305H212.948L212.945 55.9281Z" fill="black"/>
</svg>
